<svg width="18" height="18" viewBox="0 0 18 18" fill="none" xmlns="http://www.w3.org/2000/svg">
<g id="Icon/Motivation">
<path id="Vector" d="M16.5158 9.52812C15.0436 5.94653 9.8018 5.7534 11.0677 0.547813C11.1615 0.161563 10.7208 -0.136902 10.3644 0.0650011C6.96052 1.94358 4.51308 5.70951 6.56668 10.643C6.73547 11.0468 6.2291 11.4242 5.86339 11.1609C4.16612 9.95826 3.98796 8.22891 4.13799 6.99116C4.19426 6.53468 3.55661 6.31522 3.28467 6.69269C2.64702 7.60565 2 9.08042 2 11.3014C2.35633 16.2173 6.79173 17.7271 8.38585 17.9203C10.6645 18.1924 13.1307 17.7974 14.903 16.2787C16.8534 14.5845 17.5661 11.8807 16.5158 9.52812ZM7.81384 13.9436C9.16415 13.6364 9.85806 12.7235 10.0456 11.9158C10.3551 10.6605 9.1454 9.43155 9.96121 7.44763C10.2707 9.0892 13.0275 10.1163 13.0275 11.9071C13.1026 14.128 10.5332 16.0329 7.81384 13.9436Z" fill="#79AB7E"/>
</g>
</svg>
